<svg xmlns="http://www.w3.org/2000/svg" width="390" height="191" fill="none" viewBox="0 0 390 191">
    <mask id="a" width="391" height="191" x="-1" y="0" maskUnits="userSpaceOnUse" style="mask-type:luminance">
        <path fill="#fff"
              d="M91.654 0q0 1.812 0 0A90.6 90.6 0 0 0 58.7 6.224c-9.803 3.82-18.19 8.98-25.197 14.613-13.74 11.66-22.086 24.698-26.535 35.766C2.244 67.711 1.299 76.81.433 82.718.118 88.705 0 91.698 0 91.698v7.604c-.079 24.027 9.803 47.897 26.85 64.834C43.78 181.192 67.639 191.078 91.654 191h206.693c24.016.078 47.874-9.808 64.803-26.864 17.047-16.937 26.929-40.807 26.85-64.835v-7.603c.079-24.027-9.803-47.897-26.85-64.834C346.22 9.808 322.362-.078 298.346 0H91.653"/>
    </mask>
    <path fill="url(#c)"
          d="M91.654 0v10.99h206.653c21.181-.079 42.125 8.626 57.047 23.634 15 14.928 23.7 35.883 23.622 57.075v7.603c.078 21.191-8.622 42.146-23.622 57.074-14.922 15.047-35.866 23.713-57.047 23.634H91.614c-21.18.079-42.126-8.626-57.047-23.634-15-14.928-23.7-35.883-23.622-57.075v-7.603s.118-2.638.394-7.916c.787-5.2 1.575-13.196 5.748-22.964 3.937-9.769 11.26-21.231 23.386-31.512C52.717 19.42 70.354 11.03 91.653 10.99za90.6 90.6 0 0 0-32.952 6.224c-9.803 3.82-18.19 8.98-25.197 14.613-13.74 11.66-22.086 24.698-26.535 35.766C2.244 67.711 1.299 76.81.433 82.718.118 88.705 0 91.698 0 91.698v7.604c-.079 24.027 9.803 47.897 26.85 64.834C43.78 181.192 67.639 191.078 91.654 191h206.693c24.016.078 47.874-9.808 64.803-26.864 17.047-16.937 26.929-40.807 26.85-64.835v-7.603c.079-24.027-9.803-47.897-26.85-64.834C346.22 9.808 322.362-.078 298.346 0H91.653"/>
    <defs>
        <radialGradient id="c" cx="0" cy="0" r="1"
                        gradientTransform="matrix(.17952 -95.4803 201.878 .37343 194.96 95.48)"
                        gradientUnits="userSpaceOnUse">
            <stop/>
            <stop offset=".187" stop-color="#9c9c9c"/>
            <stop offset=".987" stop-color="#141414"/>
        </radialGradient>
    </defs>
</svg>
